<?xml version="1.0" encoding="UTF-8" standalone="no"?>
<!-- Created with Inkscape (http://www.inkscape.org/) -->

<svg
   width="16"
   height="16"
   viewBox="0 0 16 16"
   version="1.1"
   id="svg1"
   xml:space="preserve"
   inkscape:version="1.3.2 (091e20e, 2023-11-25, custom)"
   sodipodi:docname="icon.svg"
   xmlns:inkscape="http://www.inkscape.org/namespaces/inkscape"
   xmlns:sodipodi="http://sodipodi.sourceforge.net/DTD/sodipodi-0.dtd"
   xmlns:xlink="http://www.w3.org/1999/xlink"
   xmlns="http://www.w3.org/2000/svg"
   xmlns:svg="http://www.w3.org/2000/svg"><sodipodi:namedview
     id="namedview1"
     pagecolor="#505050"
     bordercolor="#eeeeee"
     borderopacity="1"
     inkscape:showpageshadow="0"
     inkscape:pageopacity="0"
     inkscape:pagecheckerboard="0"
     inkscape:deskcolor="#d1d1d1"
     inkscape:document-units="px"
     inkscape:zoom="37.46875"
     inkscape:cx="3.1626355"
     inkscape:cy="9.1142619"
     inkscape:window-width="2560"
     inkscape:window-height="1377"
     inkscape:window-x="-8"
     inkscape:window-y="-8"
     inkscape:window-maximized="1"
     inkscape:current-layer="g2" /><defs
     id="defs1"><linearGradient
       id="swatch6"
       inkscape:swatch="solid"><stop
         style="stop-color:#ffffff;stop-opacity:1;"
         offset="0"
         id="stop6" /></linearGradient><linearGradient
       id="linearGradient1"
       inkscape:collect="always"><stop
         style="stop-color:#8bce36;stop-opacity:1;"
         offset="0"
         id="stop1" /><stop
         style="stop-color:#00dbd7;stop-opacity:1;"
         offset="1"
         id="stop2" /></linearGradient><linearGradient
       inkscape:collect="always"
       xlink:href="#linearGradient1"
       id="linearGradient2"
       x1="0"
       y1="0"
       x2="16"
       y2="16"
       gradientUnits="userSpaceOnUse" /></defs><g
     inkscape:label="Layer 1"
     inkscape:groupmode="layer"
     id="layer1"><rect
       style="fill:url(#linearGradient2);stroke:#bd5a9b;stroke-width:0;stroke-linecap:round;stroke-dasharray:none"
       id="rect1"
       width="16"
       height="16"
       x="0"
       y="0" /><g
       style="fill:none;stroke:currentColor;stroke-width:3.00001;stroke-linecap:round;stroke-linejoin:round"
       id="g2"
       transform="scale(0.66666667)"><path
         stroke="none"
         d="M 0,0 H 24 V 24 H 0 Z"
         fill="none"
         id="path1"
         style="stroke-width:3.00001" /><path
         d="m 14.647,4.081 a 0.724,0.724 0 0 0 1.08,0.448 c 2.439,-1.485 5.23,1.305 3.745,3.744 a 0.724,0.724 0 0 0 0.447,1.08 c 2.775,0.673 2.775,4.62 0,5.294 a 0.724,0.724 0 0 0 -0.448,1.08 c 1.485,2.439 -1.305,5.23 -3.744,3.745 a 0.724,0.724 0 0 0 -1.08,0.447 c -0.673,2.775 -4.62,2.775 -5.294,0 A 0.724,0.724 0 0 0 8.273,19.471 C 5.834,20.956 3.043,18.166 4.528,15.727 a 0.724,0.724 0 0 0 -0.447,-1.08 c -2.775,-0.673 -2.775,-4.62 0,-5.294 A 0.724,0.724 0 0 0 4.529,8.273 C 3.044,5.834 5.834,3.043 8.273,4.528 a 0.722,0.722 0 0 0 1.08,-0.447 c 0.673,-2.775 4.62,-2.775 5.294,0 z M 12,9 a 3,3 0 1 0 0,6 3,3 0 0 0 0,-6 z"
         stroke-width="0"
         fill="currentColor"
         id="path2"
         style="fill:#ffffff;fill-opacity:1;stroke:#000000;stroke-opacity:1" /></g></g></svg>
